<?xml version="1.0" encoding="UTF-8"?>
<svg xmlns="http://www.w3.org/2000/svg" width="16" height="16" viewBox="0 0 11 11">
  <path d="M11 5.5C11 5.776 10.776 6 10.5 6H6V10.5C6 10.776 5.776 11 5.5 11C5.224 11 5 10.776 5 10.5V6H0.5C0.224 6 0 5.776 0 5.5C0 5.224 0.224 5 0.5 5H5V0.5C5 0.224 5.224 0 5.5 0C5.776 0 6 0.224 6 0.5V5H10.5C10.776 5 11 5.224 11 5.5Z" fill="#000"/>
  <g transform="translate(0 0) scale(0.6875 0.6875)">
    <path d="M0 9 L3 9 L18 24 L15 24 Z" fill="#000"/>
    <path d="M15 9 L18 9 L3 24 L0 24 Z" fill="#000"/>
  </g>
</svg>
