<?xml version="1.0" encoding="UTF-8"?>
<svg xmlns="http://www.w3.org/2000/svg" width="16" height="16" viewBox="0 0 16 16">
  <path d="M3.14603 9.85423C3.34103 10.0492 3.65803 10.0492 3.85303 9.85423L7.99903 5.70823L12.145 9.85423C12.34 10.0492 12.657 10.0492 12.852 9.85423C13.047 9.65923 13.047 9.34223 12.852 9.14723L8.35203 4.64723C8.15703 4.45223 7.84003 4.45223 7.64503 4.64723L3.14503 9.14723C2.95003 9.34223 2.95103 9.65923 3.14603 9.85423Z" fill="#000"/>
  <g transform="translate(0 0) scale(1 1)">
    <path d="M0 0 L3 0 L18 15 L15 15 Z" fill="#000"/>
    <path d="M15 0 L18 0 L3 15 L0 15 Z" fill="#000"/>
  </g>
</svg>
