<?xml version="1.0" encoding="UTF-8"?>
<svg xmlns="http://www.w3.org/2000/svg" width="16" height="16" viewBox="0 0 16 16">
  <path d="M5.5 2.75V13.25C5.5 13.664 5.164 14 4.75 14C4.336 14 4 13.664 4 13.25V2.75C4 2.336 4.336 2 4.75 2C5.164 2 5.5 2.336 5.5 2.75ZM11.25 2C10.836 2 10.5 2.336 10.5 2.75V13.25C10.5 13.664 10.836 14 11.25 14C11.664 14 12 13.664 12 13.25V2.75C12 2.336 11.664 2 11.25 2Z" fill="#000"/>
  <g transform="translate(0 0) scale(1 1)">
    <path d="M3 9 L6 9 L21 24 L18 24 Z" fill="#000"/>
    <path d="M18 9 L21 9 L6 24 L3 24 Z" fill="#000"/>
  </g>
</svg>
