<?xml version="1.0" encoding="UTF-8"?>
<svg xmlns="http://www.w3.org/2000/svg" width="16" height="16" viewBox="0 0 16 16">
  <path d="M9 8C9 8.55228 8.55228 9 8 9C7.44772 9 7 8.55228 7 8C7 7.44772 7.44772 7 8 7C8.55228 7 9 7.44772 9 8Z" fill="#000"/>
  <path fill-rule="evenodd" clip-rule="evenodd" d="M1 8C1 11.859 4.14 15 8 15C11.86 15 15 11.859 15 8C15 4.141 11.86 1 8 1C4.14 1 1 4.141 1 8ZM2 8C2 4.691 4.691 2 8 2C11.309 2 14 4.691 14 8C14 11.309 11.309 14 8 14C4.691 14 2 11.309 2 8Z" fill="#000"/>
  <g transform="translate(0 0) scale(1 1)">
    <path d="M3 9 L6 9 L21 24 L18 24 Z" fill="#000"/>
    <path d="M18 9 L21 9 L6 24 L3 24 Z" fill="#000"/>
  </g>
</svg>
