<?xml version="1.0" encoding="UTF-8"?>
<svg xmlns="http://www.w3.org/2000/svg" width="16" height="16" viewBox="0 0 16 16">
  <path d="M1 3.5V12.5C1 13.881 2.119 15 3.5 15H12.5C13.881 15 15 13.881 15 12.5V3.5C15 2.119 13.881 1 12.5 1H3.5C2.119 1 1 2.119 1 3.5ZM14 12H2V3.5C2 2.672 2.672 2 3.5 2H12.5C13.328 2 14 2.672 14 3.5V12Z" fill="#000"/>
  <g transform="translate(0 0) scale(1 1)">
    <path d="M3 0 L6 0 L21 15 L18 15 Z" fill="#000"/>
    <path d="M18 0 L21 0 L6 15 L3 15 Z" fill="#000"/>
  </g>
</svg>
