<?xml version="1.0" encoding="UTF-8"?>
<svg xmlns="http://www.w3.org/2000/svg" width="16" height="16" viewBox="0 0 16 16">
  <path d="M12.5 1C13.881 1 15 2.119 15 3.5V12.5C15 13.881 13.881 15 12.5 15H3.5C2.119 15 1 13.881 1 12.5V3.5C1 2.119 2.119 1 3.5 1H12.5ZM12.5 14C13.328 14 14 13.328 14 12.5V3.5C14 2.672 13.328 2 12.5 2H7V14H12.5Z" fill="#000"/>
  <g transform="translate(0 0) scale(1 1)">
    <path d="M0 9 L3 9 L18 24 L15 24 Z" fill="#000"/>
    <path d="M15 9 L18 9 L3 24 L0 24 Z" fill="#000"/>
  </g>
</svg>
