<?xml version="1.0" encoding="UTF-8"?>
<svg xmlns="http://www.w3.org/2000/svg" width="16" height="16" viewBox="0 0 16 16">
  <path d="M2 3.5C2 3.22386 2.22386 3 2.5 3H13.5C13.7761 3 14 3.22386 14 3.5C14 3.77614 13.7761 4 13.5 4H2.5C2.22386 4 2 3.77614 2 3.5ZM4 7.5C4 7.22386 4.22386 7 4.5 7H11.5C11.7761 7 12 7.22386 12 7.5C12 7.77614 11.7761 8 11.5 8H4.5C4.22386 8 4 7.77614 4 7.5ZM6 11.5C6 11.2239 6.22386 11 6.5 11H9.5C9.77614 11 10 11.2239 10 11.5C10 11.7761 9.77614 12 9.5 12H6.5C6.22386 12 6 11.7761 6 11.5Z" fill="#000"/>
  <g transform="translate(0 0) scale(1 1)">
    <path d="M0 9 L3 9 L18 24 L15 24 Z" fill="#000"/>
    <path d="M15 9 L18 9 L3 24 L0 24 Z" fill="#000"/>
  </g>
</svg>
