<?xml version="1.0" encoding="UTF-8"?>
<svg xmlns="http://www.w3.org/2000/svg" width="16" height="16" viewBox="0 0 16 16">
  <path d="M8 1C4.14 1 1 4.14 1 8C1 11.86 4.14 15 8 15C11.86 15 15 11.86 15 8C15 4.14 11.86 1 8 1ZM8 14C4.691 14 2 11.309 2 8C2 4.691 4.691 2 8 2C11.309 2 14 4.691 14 8C14 11.309 11.309 14 8 14ZM10.712 8C10.712 8.153 10.63 8.294 10.498 8.371L6.964 10.413C6.536 10.66 6 10.351 6 9.857V6.144C6 5.649 6.536 5.34 6.964 5.588L10.498 7.63C10.631 7.707 10.712 7.847 10.712 8Z" fill="#000"/>
  <g transform="translate(0 0) scale(1 1)">
    <path d="M0 9 L3 9 L18 24 L15 24 Z" fill="#000"/>
    <path d="M15 9 L18 9 L3 24 L0 24 Z" fill="#000"/>
  </g>
</svg>
