<?xml version="1.0" encoding="UTF-8"?>
<svg xmlns="http://www.w3.org/2000/svg" width="16" height="16" viewBox="0 0 16 16">
  <path d="M10 10.5C10 12.985 7.985 15 5.5 15C3.015 15 1 12.985 1 10.5C1 8.015 3.015 6 5.5 6C7.985 6 10 8.015 10 10.5ZM10.5 1C8.19 1 6.306 2.756 6.053 5H7.067C7.313 3.31 8.743 2 10.5 2C12.43 2 14 3.57 14 5.5C14 7.257 12.69 8.687 11 8.933V9.947C13.244 9.694 15 7.81 15 5.5C15 3.019 12.981 1 10.5 1Z" fill="#000"/>
  <g transform="translate(0 0) scale(1 1)">
    <path d="M11 11 L12 11 L15 14 L14 14 Z" fill="#000"/>
    <path d="M14 11 L15 11 L12 14 L11 14 Z" fill="#000"/>
  </g>
</svg>
