<?xml version="1.0" encoding="UTF-8"?>
<svg xmlns="http://www.w3.org/2000/svg" width="16" height="16" viewBox="0 0 10 10">
  <path d="M8 0H5C4.45 0 4 0.45 4 1H1C0.45 1 0 1.45 0 2V6C0 6.55 0.45 7 1 7H2V8C2 8.55 2.45 9 3 9H6C6.55 9 7 8.55 7 8V6H8C8.55 6 9 5.55 9 5V1C9 0.45 8.55 0 8 0ZM1 6V2H4V3H3C2.45 3 2 3.45 2 4V6H1ZM6 8H3V4H6V8ZM8 5H7V4C7 3.45 6.55 3 6 3H5V1H8V5Z" fill="#000"/>
  <g transform="translate(0 0) scale(0.625 0.625)">
    <path d="M11 11 L12 11 L15 14 L14 14 Z" fill="#000"/>
    <path d="M14 11 L15 11 L12 14 L11 14 Z" fill="#000"/>
  </g>
</svg>
