<?xml version="1.0" encoding="UTF-8"?>
<svg xmlns="http://www.w3.org/2000/svg" width="16" height="16" viewBox="0 0 16 16">
  <path d="M12.854 7.64601L8.35401 3.14601C8.15901 2.95101 7.84201 2.95101 7.64701 3.14601L3.14601 7.64601C2.95101 7.84101 2.95101 8.15801 3.14601 8.35301L7.64601 12.853C7.74401 12.951 7.87201 12.999 8.00001 12.999C8.12801 12.999 8.25601 12.95 8.35401 12.853L12.854 8.35301C13.049 8.15801 13.049 7.84101 12.854 7.64601Z" fill="#000"/>
  <g transform="translate(0 0) scale(1 1)">
    <path d="M11 11 L12 11 L15 14 L14 14 Z" fill="#000"/>
    <path d="M14 11 L15 11 L12 14 L11 14 Z" fill="#000"/>
  </g>
</svg>
