<?xml version="1.0" encoding="UTF-8"?>
<svg xmlns="http://www.w3.org/2000/svg" width="16" height="16" viewBox="0 0 16 16">
  <path d="M1 3.5V12.5C1 13.879 2.122 15 3.5 15H12.5C13.878 15 15 13.879 15 12.5V3.5C15 2.122 13.878 1 12.5 1H3.5C2.122 1 1 2.122 1 3.5ZM9 2V10H2V3.5C2 2.673 2.673 2 3.5 2H9ZM10 2H12.5C13.327 2 14 2.673 14 3.5V12.5C14 13.327 13.327 14 12.5 14H10V2Z" fill="#000"/>
  <g transform="translate(0 0) scale(1 1)">
    <path d="M6 11 L7 11 L10 14 L9 14 Z" fill="#000"/>
    <path d="M9 11 L10 11 L7 14 L6 14 Z" fill="#000"/>
  </g>
</svg>
