<?xml version="1.0" encoding="UTF-8"?>
<svg xmlns="http://www.w3.org/2000/svg" width="16" height="16" viewBox="0 0 16 16">
  <path fill-rule="evenodd" clip-rule="evenodd" d="M7 2H11.5C11.776 2 12 2.224 12 2.5C12 2.776 11.776 3 11.5 3H11V13.5C11 13.776 10.776 14 10.5 14C10.224 14 10 13.776 10 13.5V3H9V13.5C9 13.776 8.776 14 8.5 14C8.224 14 8 13.776 8 13.5V9H7C5.067 9 3.5 7.433 3.5 5.5C3.5 3.567 5.067 2 7 2ZM7 8H8V3H7C5.619 3 4.5 4.119 4.5 5.5C4.5 6.881 5.619 8 7 8Z" fill="#000"/>
  <g transform="translate(0 0) scale(1 1)">
    <path d="M6 11 L7 11 L10 14 L9 14 Z" fill="#000"/>
    <path d="M9 11 L10 11 L7 14 L6 14 Z" fill="#000"/>
  </g>
</svg>
