<?xml version="1.0" encoding="UTF-8"?>
<svg xmlns="http://www.w3.org/2000/svg" width="16" height="16" viewBox="0 0 16 16">
  <path d="M8.854 9.85398L10.854 7.85398C11.049 7.65898 11.049 7.34198 10.854 7.14698L8.854 5.14698C8.659 4.95198 8.342 4.95198 8.147 5.14698C7.952 5.34198 7.952 5.65898 8.147 5.85398L9.293 6.99998H4.5C4.224 6.99998 4 7.22398 4 7.49998C4 7.77598 4.224 7.99998 4.5 7.99998H9.293L8.147 9.14598C8.049 9.24398 8.001 9.37198 8.001 9.49998C8.001 9.62798 8.05 9.75598 8.147 9.85398C8.342 10.049 8.659 10.049 8.854 9.85398Z" fill="#000"/>
  <path d="M6 1 L7 1 L10 4 L9 4 Z" fill="#000"/>
  <path d="M9 1 L10 1 L7 4 L6 4 Z" fill="#000"/>
</svg>
