<?xml version="1.0" encoding="UTF-8"?>
<svg xmlns="http://www.w3.org/2000/svg" width="16" height="16" viewBox="0 0 16 16">
  <path fill-rule="evenodd" clip-rule="evenodd" d="M8 12C10.2091 12 12 10.2091 12 8C12 5.79086 10.2091 4 8 4C5.79086 4 4 5.79086 4 8C4 10.2091 5.79086 12 8 12ZM10.6093 8C10.6093 9.44108 9.44107 10.6093 8 10.6093C6.55893 10.6093 5.39071 9.44108 5.39071 8C5.39071 6.55893 6.55893 5.39071 8 5.39071C9.44107 5.39071 10.6093 6.55893 10.6093 8Z" fill="#000"/>
  <path d="M11 11 L12 11 L15 14 L14 14 Z" fill="#000"/>
  <path d="M14 11 L15 11 L12 14 L11 14 Z" fill="#000"/>
</svg>
