<?xml version="1.0" encoding="UTF-8"?>
<svg xmlns="http://www.w3.org/2000/svg" width="16" height="16" viewBox="0 0 16 16">
  <path fill-rule="evenodd" clip-rule="evenodd" d="M12.5 1H3.5C2.121 1 1 2.121 1 3.5V12.5C1 13.879 2.121 15 3.5 15H12.5C13.879 15 15 13.879 15 12.5V3.5C15 2.121 13.879 1 12.5 1ZM14 3.5V10H12V2H12.5C13.327 2 14 2.673 14 3.5ZM5 10H11V2H5V10ZM4 2V10H2V3.5C2 2.673 2.673 2 3.5 2H4Z" fill="#000"/>
  <path d="M6 1 L7 1 L10 4 L9 4 Z" fill="#000"/>
  <path d="M9 1 L10 1 L7 4 L6 4 Z" fill="#000"/>
</svg>
