<svg xmlns="http://www.w3.org/2000/svg" viewBox="0 0 24 24" width="16" height="16">
  <path d="M2 6h20v14a2 2 0 01-2 2H4a2 2 0 01-2-2V6z" fill="#1b1f23"/>
  <path d="M2 4a2 2 0 012-2h5l2 2h9a2 2 0 012 2v2H2V4z" fill="#33383d"/>
  <ellipse cx="12" cy="15" rx="3.5" ry="3" fill="#f0f6fc"/>
  <polygon points="9,12 9.5,9 10.5,11.5" fill="#f0f6fc"/>
  <polygon points="13.5,11.5 14.5,9 15,12" fill="#f0f6fc"/>
  <circle cx="10.5" cy="14.5" r="0.8" fill="#1b1f23"/>
  <circle cx="13.5" cy="14.5" r="0.8" fill="#1b1f23"/>
  <ellipse cx="12" cy="15.8" rx="0.4" ry="0.3" fill="#1b1f23"/>
  <path d="M11,16 Q12,16.8 13,16" fill="none" stroke="#1b1f23" stroke-width="0.4"/>
</svg>
